# xmcd CD database file
#
# Track frame offsets:
#	150
#	12242
#	29237
#	45690
#	55157
#	72157
#	90315
#	99877
#	119747
#	131607
#
# Disc length: 2004 seconds
#
# Revision: 0
# Processed by: cddbd v1.5.1PL0 Copyright (c) Steve Scherf et al.
# Submitted via: CDex 1.51
#
DISCID=8407d20a
DTITLE=J.B. Blues Band - Gotta Gig, Gotta Band
DYEAR=1998
DGENRE=Blues
TTITLE0=Weed
TTITLE1=Wasn't Born To Be A Beggar
TTITLE2=Milk Cow Boogie
TTITLE3=Born In Chicago
TTITLE4=Shaky Ground
TTITLE5=Don't Know Where To Stand
TTITLE6=Rockin' Robin
TTITLE7=Blues Jam In E. (AKA Big Bossman)
TTITLE8=Rock Me Babe
TTITLE9=Key to the Highways
EXTD=YEAR: 1998
EXTT0=
EXTT1=
EXTT2=
EXTT3=
EXTT4=
EXTT5=
EXTT6=
EXTT7=
EXTT8=
EXTT9=
PLAYORDER=
